# xmcd
#
# Track frame offsets:
# 150
# 18359
# 35912
# 59502
# 85492
# 108690
# 135305
# 151574
# 169485
# 200791
# 217060
# 234840
# 253186
# 271622
# 298015
#
# Disc length: 4255 seconds
#
# Revision: 0
# Processed by: cddbd v1.5.2PL0 Copyright (c) Steve Scherf et al.
# Submitted via: Audion 3.0.2 (http://www.panic.com/audion/)
#
DISCID=de109d0f
DTITLE=Disco3 - Caminando hacia la luz
DYEAR=1900
DGENRE=
TTITLE0=Que eres para mi
TTITLE1=Te hablare señor
TTITLE2=Sumergeme
TTITLE3=Todo lo que puede Cristo
TTITLE4=Te pido la paz
TTITLE5=Vestido de ternura
TTITLE6=El espiritu Santo ya llego
TTITLE7=Tan lejos, tan cerca
TTITLE8=Enciendeme una luz
TTITLE9=Gloria a ti Jesus divinbo
TTITLE10=Tu conoces
TTITLE11=Mil caminos bajo el sol
TTITLE12=Llename
TTITLE13=La fruta preohivita
TTITLE14=El verso se hizo carne
EXTD=
EXTT0=
EXTT1=
EXTT2=
EXTT3=
EXTT4=
EXTT5=
EXTT6=
EXTT7=
EXTT8=
EXTT9=
EXTT10=
EXTT11=
EXTT12=
EXTT13=
EXTT14=
PLAYORDER=
